<?xml version="1.0" encoding="utf-8"?>
<!DOCTYPE svg PUBLIC "-//W3C//DTD SVG 1.1//EN" "http://www.w3.org/Graphics/SVG/1.1/DTD/svg11.dtd">
<svg version="1.1" xmlns="http://www.w3.org/2000/svg" xmlns:xlink="http://www.w3.org/1999/xlink" x="0px" y="0px" viewBox="0 0 225 110" enable-background="new 0 0 225 110" xml:space="preserve">
<rect fill="#003870" width="225" height="110"/>
	<g>
		<g>
			<path fill="#FFFFFF" d="M25,77.033h1.301v9.783H25V77.033z"/>
			<path fill="#FFFFFF" d="M28.249,79.732h1.095v1.125h0.028c0.492-0.877,1.288-1.291,2.303-1.291c1.862,0,2.438,1.071,2.438,2.592
				v4.658h-1.166v-4.795c0-0.864-0.547-1.425-1.439-1.425c-1.408,0-2.095,0.946-2.095,2.219v4.001h-1.164V79.732z"/>
			<path fill="#FFFFFF" d="M39.008,86.816h-1.247l-2.633-7.084h1.303l1.986,5.906h0.028l1.931-5.906h1.221L39.008,86.816z"/>
			<path fill="#FFFFFF" d="M48.655,84.57c-0.315,1.56-1.439,2.412-3.027,2.412c-2.259,0-3.331-1.564-3.396-3.729
				c0-2.123,1.396-3.687,3.329-3.687c2.505,0,3.275,2.345,3.204,4.058h-5.301c-0.04,1.232,0.658,2.328,2.206,2.328
				c0.959,0,1.63-0.466,1.837-1.382H48.655z M47.533,82.597c-0.056-1.111-0.891-2.001-2.042-2.001c-1.22,0-1.946,0.918-2.028,2.001
				H47.533z"/>
			<path fill="#FFFFFF" d="M50.632,84.581c0.042,1.043,0.946,1.372,1.906,1.372c0.727,0,1.711-0.164,1.711-1.054
				c0-0.903-1.149-1.056-2.315-1.316c-1.152-0.262-2.316-0.645-2.316-2c0-1.427,1.412-2.017,2.645-2.017
				c1.562,0,2.808,0.496,2.905,2.223h-1.166c-0.08-0.905-0.877-1.193-1.644-1.193c-0.7,0-1.507,0.192-1.507,0.904
				c0,0.837,1.231,0.973,2.317,1.233c1.164,0.26,2.313,0.644,2.313,2.015c0,1.682-1.575,2.234-3.013,2.234
				c-1.589,0-2.933-0.646-3-2.401H50.632z"/>
			<path fill="#FFFFFF" d="M58.335,79.732h1.411v1.028h-1.411v4.397c0,0.536,0.152,0.631,0.878,0.631h0.533v1.028h-0.891
				c-1.205,0-1.685-0.246-1.685-1.547V80.76h-1.206v-1.028h1.206v-2.124h1.164V79.732z"/>
			<path fill="#FFFFFF" d="M62.215,78.457H61.05v-1.424h1.165V78.457z M61.05,79.732h1.165v7.084H61.05V79.732z"/>
			<path fill="#FFFFFF" d="M63.969,79.732h1.098v1.125h0.03c0.489-0.877,1.286-1.291,2.299-1.291c1.861,0,2.438,1.071,2.438,2.592
				v4.658h-1.164v-4.795c0-0.864-0.545-1.425-1.438-1.425c-1.412,0-2.095,0.946-2.095,2.219v4.001h-1.168V79.732z"/>
			<path fill="#FFFFFF" d="M77.648,86.212c0,2.301-1.055,3.481-3.288,3.481c-1.329,0-2.865-0.534-2.932-2.083h1.166
				c0.052,0.85,1.067,1.151,1.835,1.151c1.521,0,2.124-1.096,2.124-2.688V85.61h-0.028c-0.384,0.861-1.315,1.288-2.206,1.288
				c-2.111,0-3.165-1.658-3.165-3.591c0-1.669,0.822-3.741,3.275-3.741c0.892,0,1.684,0.399,2.109,1.179h-0.014h0.028v-1.014h1.096
				V86.212z M76.499,83.129c0-1.246-0.548-2.534-2.014-2.534c-1.495,0-2.097,1.218-2.097,2.575c0,1.274,0.466,2.701,2,2.701
				C75.923,85.872,76.499,84.458,76.499,83.129z"/>
			<path fill="#FFFFFF" d="M84.341,78.457h-1.165v-1.424h1.165V78.457z M83.176,79.732h1.165v7.084h-1.165V79.732z"/>
			<path fill="#FFFFFF" d="M86.095,79.732h1.095v1.125h0.029c0.492-0.877,1.287-1.291,2.301-1.291c1.865,0,2.439,1.071,2.439,2.592
				v4.658h-1.163v-4.795c0-0.864-0.55-1.425-1.44-1.425c-1.409,0-2.097,0.946-2.097,2.219v4.001h-1.164V79.732z"/>
			<path fill="#FFFFFF" d="M97.376,79.732h1.098v1.496h0.028c0.562-1.138,1.34-1.7,2.603-1.661V80.8
				c-1.879,0-2.563,1.069-2.563,2.865v3.151h-1.166V79.732z"/>
			<path fill="#FFFFFF" d="M107.793,86.816h-1.098v-1.124h-0.028c-0.494,0.877-1.286,1.29-2.3,1.29
				c-1.864,0-2.439-1.072-2.439-2.589v-4.661h1.164v4.796c0,0.862,0.549,1.424,1.438,1.424c1.412,0,2.097-0.946,2.097-2.22v-4h1.166
				V86.816z"/>
			<path fill="#FFFFFF" d="M109.454,79.732h1.095v1.496h0.028c0.562-1.138,1.342-1.7,2.603-1.661V80.8
				c-1.877,0-2.563,1.069-2.563,2.865v3.151h-1.164V79.732z"/>
			<path fill="#FFFFFF" d="M120.28,86.788c-0.208,0.124-0.468,0.194-0.836,0.194c-0.605,0-0.988-0.332-0.988-1.096
				c-0.644,0.75-1.506,1.096-2.493,1.096c-1.288,0-2.344-0.576-2.344-1.989c0-1.602,1.193-1.943,2.397-2.178
				c1.29-0.246,2.383-0.165,2.383-1.042c0-1.014-0.835-1.178-1.574-1.178c-0.987,0-1.713,0.3-1.768,1.343h-1.166
				c0.07-1.754,1.424-2.373,3-2.373c1.277,0,2.659,0.29,2.659,1.947v3.643c0,0.549,0,0.795,0.37,0.795
				c0.096,0,0.205-0.014,0.357-0.066V86.788z M118.389,83.157c-0.452,0.328-1.33,0.342-2.111,0.48
				c-0.764,0.138-1.423,0.41-1.423,1.275c0,0.766,0.659,1.04,1.371,1.04c1.532,0,2.164-0.959,2.164-1.602V83.157z"/>
			<path fill="#FFFFFF" d="M121.379,77.033h1.164v9.783h-1.164V77.033z"/>
			<path fill="#FFFFFF" d="M128.097,79.732h1.163v0.959h0.029c0.383-0.779,1.286-1.125,2.258-1.125c2.179,0,3.262,1.727,3.262,3.73
				c0,2-1.068,3.686-3.233,3.686c-0.726,0-1.768-0.275-2.287-1.11h-0.029v3.657h-1.163V79.732z M131.384,80.596
				c-1.562,0-2.164,1.343-2.164,2.671c0,1.397,0.628,2.685,2.233,2.685c1.587,0,2.122-1.358,2.122-2.739
				C133.575,81.883,132.89,80.596,131.384,80.596z"/>
			<path fill="#FFFFFF" d="M142.17,84.57c-0.314,1.56-1.438,2.412-3.027,2.412c-2.261,0-3.331-1.564-3.397-3.729
				c0-2.123,1.398-3.687,3.329-3.687c2.507,0,3.273,2.345,3.205,4.058h-5.302c-0.04,1.232,0.658,2.328,2.208,2.328
				c0.957,0,1.629-0.466,1.835-1.382H142.17z M141.048,82.597c-0.056-1.111-0.891-2.001-2.042-2.001
				c-1.221,0-1.944,0.918-2.029,2.001H141.048z"/>
			<path fill="#FFFFFF" d="M146.49,79.566c2.248,0,3.439,1.631,3.439,3.714c0,2.068-1.191,3.701-3.439,3.701
				c-2.246,0-3.439-1.633-3.439-3.701C143.051,81.198,144.245,79.566,146.49,79.566z M146.49,85.952
				c1.221,0,2.205-0.959,2.205-2.671c0-1.725-0.984-2.685-2.205-2.685c-1.219,0-2.206,0.96-2.206,2.685
				C144.284,84.993,145.271,85.952,146.49,85.952z"/>
			<path fill="#FFFFFF" d="M151.288,79.732h1.166v0.959h0.026c0.384-0.779,1.29-1.125,2.263-1.125c2.177,0,3.259,1.727,3.259,3.73
				c0,2-1.068,3.686-3.233,3.686c-0.726,0-1.767-0.275-2.289-1.11h-0.026v3.657h-1.166V79.732z M154.577,80.596
				c-1.562,0-2.166,1.343-2.166,2.671c0,1.397,0.631,2.685,2.235,2.685c1.588,0,2.121-1.358,2.121-2.739
				C156.768,81.883,156.083,80.596,154.577,80.596z"/>
			<path fill="#FFFFFF" d="M159.393,77.033h1.163v9.783h-1.163V77.033z"/>
			<path fill="#FFFFFF" d="M168.352,84.57c-0.315,1.56-1.439,2.412-3.028,2.412c-2.259,0-3.329-1.564-3.396-3.729
				c0-2.123,1.396-3.687,3.329-3.687c2.505,0,3.273,2.345,3.205,4.058h-5.302c-0.04,1.232,0.658,2.328,2.206,2.328
				c0.96,0,1.629-0.466,1.837-1.382H168.352z M167.23,82.597c-0.056-1.111-0.891-2.001-2.043-2.001c-1.22,0-1.943,0.918-2.028,2.001
				H167.23z"/>
		</g>
		<g>
			<g>
				<path fill="#FFFFFF" d="M61.106,66.025h5.415V44.818h-5.415V66.025z M70.362,66.025h5.187v-8.08h6.166v-4.761h-6.166v-3.61
					h6.398v-4.756H70.362V66.025z M95.745,62.961l1.03,3.064h5.878l-8.428-21.208h-4.268l-8.513,21.208h5.82l1.115-3.064H95.745z
					 M92.05,51.406h0.056h0.027l2.177,7.257h-4.44L92.05,51.406z M104.539,66.025h7.422c8.056,0,10.923-4.874,10.923-10.659
					c0-2.324-0.487-4.589-1.95-6.596c-2.751-3.953-6.992-3.953-9.374-3.953h-7.021V66.025z M109.958,49.574h2.351
					c2.405,0,3.497,1.005,4.128,1.95c0.775,1.202,1.028,2.72,1.028,3.926c0,3.012-1.141,5.819-5.188,5.819h-2.319V49.574z"/>
			</g>
		</g>
		<g>
			<path fill="#FFFFFF" d="M47.328,32.547L47.328,32.547L47.328,32.547z"/>
			<path fill="#FFFFFF" d="M33.809,32.547L33.809,32.547L33.809,32.547z"/>
			<path fill="#FFFFFF" d="M40.568,32.607c-0.284-0.374-0.406-0.622-0.732-0.96c-0.31-0.321-0.511-0.478-0.89-0.714
				c-0.262-0.162-0.433-0.206-0.69-0.362c-0.321-0.188-0.501-0.301-0.775-0.546c-0.274-0.249-0.4-0.418-0.618-0.715
				c-0.292-0.396-0.449-0.64-0.633-1.098c-0.167-0.397-0.224-0.638-0.276-1.063c-0.051-0.44-0.037-0.7,0.017-1.137
				c0.045-0.329,0.096-0.515,0.195-0.831c0.063-0.195,0.096-0.31,0.198-0.49c0.09-0.162,0.155-0.25,0.283-0.38v-6.617h0.401v6.742
				l0,0c0.031,0.37-0.01,0.59,0.083,0.953c0.079,0.336,0.142,0.529,0.329,0.819c0.206,0.32,0.37,0.492,0.696,0.694
				c0.171,0.114,0.268,0.198,0.47,0.24c0.098,0.014,0.251,0.007,0.251,0.007c-0.098-0.308-0.16-0.702-0.16-1.125
				c0-0.463,0.053-0.88,0.17-1.198v-7.131h-0.01h0.404v6.474l0.011,0.009l0.016-0.033l0,0c0.11-0.121,0.163-0.207,0.283-0.314
				c0.108-0.091,0.173-0.141,0.293-0.202c0.117-0.062,0.185-0.088,0.306-0.12c0.148-0.037,0.379-0.04,0.379-0.04
				s0.239,0.003,0.381,0.04c0.124,0.031,0.192,0.062,0.305,0.12c0.124,0.061,0.187,0.11,0.293,0.202
				c0.123,0.11,0.173,0.193,0.284,0.314l0,0l0.02,0.033l0.007-0.009v-6.474h0.403h-0.009v7.131c0.119,0.318,0.169,0.735,0.169,1.198
				c0,0.423-0.06,0.817-0.161,1.125c0,0,0.157,0.007,0.253-0.007c0.204-0.042,0.298-0.126,0.473-0.24
				c0.321-0.203,0.486-0.37,0.694-0.694c0.187-0.29,0.251-0.483,0.332-0.819c0.086-0.363,0.047-0.583,0.077-0.953l0,0v-6.742h0.403
				v6.617c0.127,0.13,0.192,0.218,0.286,0.38c0.098,0.18,0.129,0.295,0.194,0.49c0.103,0.316,0.148,0.502,0.196,0.831
				c0.056,0.437,0.07,0.696,0.019,1.137c-0.056,0.425-0.111,0.666-0.273,1.063c-0.187,0.458-0.346,0.703-0.636,1.098
				c-0.217,0.297-0.345,0.466-0.618,0.715c-0.272,0.245-0.454,0.358-0.774,0.546c-0.262,0.156-0.432,0.203-0.694,0.362
				c-0.379,0.236-0.581,0.397-0.89,0.714C40.971,31.984,40.856,32.234,40.568,32.607z"/>
			<path fill="#FFFFFF" d="M40.568,38.299c-0.544-0.938-1.314-1.721-2.189-2.327c0,0-0.345-0.234-1.216-0.723
				c-0.701-0.397-1.155-0.895-1.561-1.386c-2.331-3.449-1.058-6.563-0.822-6.5l0.019-0.018l-0.019,0.018v-9.669l0,0h0.397v10.425
				l0,0c0,0-0.2,1.203,1.618,2.011c1.163,0.517,2.732,1.928,3.773,3.735c1.042-1.807,2.611-3.218,3.778-3.735
				c1.818-0.809,1.618-2.011,1.618-2.011l0,0V17.693h0.394l0,0v9.669l-0.017-0.018l0.017,0.018c0.236-0.063,1.507,3.052-0.818,6.5
				c-0.411,0.491-0.864,0.988-1.569,1.386c-0.869,0.489-1.211,0.723-1.211,0.723C41.882,36.578,41.112,37.36,40.568,38.299z"/>
			<path fill="#FFFFFF" d="M40.568,44.052c0,0-0.568-1.873-2.739-2.679c-7.353-2.735-4.685-8.516-4.426-8.785V17.693h0.405v14.854
				l0,0c0.013,0.167,0.058,0.603,0.227,1.058c0.215,0.578,0.59,1.197,0.967,1.427c0.907,0.552,1.523,0.667,2.376,1.116
				c0.759,0.4,1.713,1.044,3.189,2.75c1.482-1.706,2.433-2.35,3.189-2.75c0.859-0.449,1.471-0.563,2.379-1.116
				c0.376-0.23,0.753-0.85,0.966-1.427c0.17-0.456,0.214-0.891,0.226-1.058l0,0V17.693h0.408v14.895
				c0.255,0.269,2.93,6.05-4.428,8.785C41.141,42.179,40.568,44.052,40.568,44.052z"/>
			<path fill="#FFFFFF" d="M29.815,66.023h-4.77v-4.202h4.752c2.086,0,3.776-1.7,3.776-3.786V44.83h4.072l0.009,13.34
				C37.654,62.511,34.16,66.023,29.815,66.023z"/>
			<path fill="#FFFFFF" d="M51.337,66.023h4.773v-4.202h-4.752c-2.082,0-3.773-1.7-3.773-3.786V44.83H43.51l-0.009,13.34
				C43.501,62.511,46.998,66.023,51.337,66.023z"/>
			<path fill="#FFFFFF" d="M29.756,71.117h-4.711V66.91h4.752c5.4,0,8.742-4.225,8.742-8.874V44.83h4.072l0.007,13.34
				C42.619,65.196,37.045,71.117,29.756,71.117z"/>
		</g>
	</g>
</svg>
